<mxfile host="app.diagrams.net" modified="2021-12-22T13:04:16.859Z" agent="5.0 (Macintosh; Intel Mac OS X 10_15_7) AppleWebKit/605.1.15 (KHTML, like Gecko) Version/14.1.2 Safari/605.1.15" etag="aKad13kBQ-F-KSqmId2S" version="16.0.0" type="github">
  <diagram id="rm9Ev4m6QvqAd9nGGGcV" name="Page-1">
    <mxGraphModel dx="946" dy="738" grid="1" gridSize="10" guides="1" tooltips="1" connect="1" arrows="1" fold="1" page="1" pageScale="1" pageWidth="827" pageHeight="1169" math="0" shadow="0">
      <root>
        <mxCell id="0" />
        <mxCell id="1" parent="0" />
        <mxCell id="5IlsBMFir-37_L_1EuhB-6" value="" style="shape=cube;whiteSpace=wrap;html=1;boundedLbl=1;backgroundOutline=1;darkOpacity=0.05;darkOpacity2=0.1;fontSize=14;strokeWidth=0;direction=east;rotation=0;fillColor=#60a917;sketch=0;shadow=0;fontColor=#ffffff;strokeColor=#2D7600;opacity=80;" vertex="1" parent="1">
          <mxGeometry x="110" y="720" width="30" height="110" as="geometry" />
        </mxCell>
        <mxCell id="5IlsBMFir-37_L_1EuhB-23" value="" style="shape=flexArrow;endArrow=classic;html=1;rounded=0;fontSize=14;strokeColor=#2D7600;strokeWidth=0;opacity=75;fillColor=#60a917;" edge="1" parent="1">
          <mxGeometry width="50" height="50" relative="1" as="geometry">
            <mxPoint x="160" y="778" as="sourcePoint" />
            <mxPoint x="190" y="778" as="targetPoint" />
          </mxGeometry>
        </mxCell>
        <mxCell id="5IlsBMFir-37_L_1EuhB-24" value="" style="shape=flexArrow;endArrow=classic;html=1;rounded=0;fontSize=14;strokeColor=#C73500;strokeWidth=0;opacity=75;fillColor=#fa6800;" edge="1" parent="1">
          <mxGeometry width="50" height="50" relative="1" as="geometry">
            <mxPoint x="310" y="775" as="sourcePoint" />
            <mxPoint x="360" y="774.5" as="targetPoint" />
          </mxGeometry>
        </mxCell>
        <mxCell id="5IlsBMFir-37_L_1EuhB-25" value="&lt;p style=&quot;line-height: 1&quot;&gt;input&lt;/p&gt;" style="text;html=1;align=center;verticalAlign=middle;resizable=0;points=[];autosize=1;strokeColor=none;fillColor=none;fontSize=14;" vertex="1" parent="1">
          <mxGeometry x="100" y="830" width="50" height="50" as="geometry" />
        </mxCell>
        <mxCell id="5IlsBMFir-37_L_1EuhB-37" style="edgeStyle=orthogonalEdgeStyle;rounded=0;orthogonalLoop=1;jettySize=auto;html=1;exitX=0;exitY=0;exitDx=0;exitDy=10.82;exitPerimeter=0;entryX=0;entryY=0;entryDx=25;entryDy=0;entryPerimeter=0;fontSize=14;strokeColor=default;strokeWidth=0;opacity=75;" edge="1" parent="1" target="5IlsBMFir-37_L_1EuhB-31">
          <mxGeometry relative="1" as="geometry">
            <mxPoint x="420" y="779.1799999999998" as="sourcePoint" />
          </mxGeometry>
        </mxCell>
        <mxCell id="5IlsBMFir-37_L_1EuhB-43" value="" style="group" vertex="1" connectable="0" parent="1">
          <mxGeometry x="200" y="750" width="101.40999999999997" height="85.21000000000004" as="geometry" />
        </mxCell>
        <mxCell id="5IlsBMFir-37_L_1EuhB-26" value="" style="shape=cube;whiteSpace=wrap;html=1;boundedLbl=1;backgroundOutline=1;darkOpacity=0.05;darkOpacity2=0.1;shadow=0;sketch=0;fontSize=14;strokeColor=#C73500;strokeWidth=1;opacity=80;fillColor=#fa6800;fontColor=#000000;aspect=fixed;" vertex="1" parent="5IlsBMFir-37_L_1EuhB-43">
          <mxGeometry width="51.41" height="35.21" as="geometry" />
        </mxCell>
        <mxCell id="5IlsBMFir-37_L_1EuhB-38" value="" style="shape=cube;whiteSpace=wrap;html=1;boundedLbl=1;backgroundOutline=1;darkOpacity=0.05;darkOpacity2=0.1;shadow=0;sketch=0;fontSize=14;strokeColor=#C73500;strokeWidth=1;opacity=80;fillColor=#fa6800;fontColor=#000000;aspect=fixed;" vertex="1" parent="5IlsBMFir-37_L_1EuhB-43">
          <mxGeometry x="10" y="10" width="51.41" height="35.21" as="geometry" />
        </mxCell>
        <mxCell id="5IlsBMFir-37_L_1EuhB-39" value="" style="shape=cube;whiteSpace=wrap;html=1;boundedLbl=1;backgroundOutline=1;darkOpacity=0.05;darkOpacity2=0.1;shadow=0;sketch=0;fontSize=14;strokeColor=#C73500;strokeWidth=1;opacity=80;fillColor=#fa6800;fontColor=#000000;aspect=fixed;" vertex="1" parent="5IlsBMFir-37_L_1EuhB-43">
          <mxGeometry x="20" y="20" width="51.41" height="35.21" as="geometry" />
        </mxCell>
        <mxCell id="5IlsBMFir-37_L_1EuhB-40" value="" style="shape=cube;whiteSpace=wrap;html=1;boundedLbl=1;backgroundOutline=1;darkOpacity=0.05;darkOpacity2=0.1;shadow=0;sketch=0;fontSize=14;strokeColor=#C73500;strokeWidth=1;opacity=80;fillColor=#fa6800;fontColor=#000000;aspect=fixed;" vertex="1" parent="5IlsBMFir-37_L_1EuhB-43">
          <mxGeometry x="30" y="30" width="51.41" height="35.21" as="geometry" />
        </mxCell>
        <mxCell id="5IlsBMFir-37_L_1EuhB-41" value="" style="shape=cube;whiteSpace=wrap;html=1;boundedLbl=1;backgroundOutline=1;darkOpacity=0.05;darkOpacity2=0.1;shadow=0;sketch=0;fontSize=14;strokeColor=#C73500;strokeWidth=1;opacity=80;fillColor=#fa6800;fontColor=#000000;aspect=fixed;" vertex="1" parent="5IlsBMFir-37_L_1EuhB-43">
          <mxGeometry x="40" y="40" width="51.41" height="35.21" as="geometry" />
        </mxCell>
        <mxCell id="5IlsBMFir-37_L_1EuhB-42" value="" style="shape=cube;whiteSpace=wrap;html=1;boundedLbl=1;backgroundOutline=1;darkOpacity=0.05;darkOpacity2=0.1;shadow=0;sketch=0;fontSize=14;strokeColor=#C73500;strokeWidth=1;opacity=80;fillColor=#fa6800;fontColor=#000000;aspect=fixed;" vertex="1" parent="5IlsBMFir-37_L_1EuhB-43">
          <mxGeometry x="50" y="50" width="51.41" height="35.21" as="geometry" />
        </mxCell>
        <mxCell id="5IlsBMFir-37_L_1EuhB-45" value="divide&lt;br&gt;patch" style="text;html=1;align=center;verticalAlign=middle;resizable=0;points=[];autosize=1;strokeColor=none;fillColor=none;fontSize=14;" vertex="1" parent="1">
          <mxGeometry x="150" y="710" width="50" height="40" as="geometry" />
        </mxCell>
        <mxCell id="5IlsBMFir-37_L_1EuhB-47" value="linear project&lt;br&gt;&amp;amp;&lt;br&gt;add classify Vector *" style="text;html=1;align=center;verticalAlign=middle;resizable=0;points=[];autosize=1;strokeColor=none;fillColor=none;fontSize=14;" vertex="1" parent="1">
          <mxGeometry x="255" y="700" width="140" height="60" as="geometry" />
        </mxCell>
        <mxCell id="5IlsBMFir-37_L_1EuhB-49" value="patches" style="text;html=1;align=center;verticalAlign=middle;resizable=0;points=[];autosize=1;strokeColor=none;fillColor=none;fontSize=14;" vertex="1" parent="1">
          <mxGeometry x="241.41" y="845" width="60" height="20" as="geometry" />
        </mxCell>
        <mxCell id="5IlsBMFir-37_L_1EuhB-104" value="" style="group" vertex="1" connectable="0" parent="1">
          <mxGeometry x="390" y="670" width="115" height="170" as="geometry" />
        </mxCell>
        <mxCell id="5IlsBMFir-37_L_1EuhB-95" value="" style="group" vertex="1" connectable="0" parent="5IlsBMFir-37_L_1EuhB-104">
          <mxGeometry x="5" y="100" width="110" height="70" as="geometry" />
        </mxCell>
        <mxCell id="5IlsBMFir-37_L_1EuhB-68" value="" style="shape=cube;whiteSpace=wrap;html=1;boundedLbl=1;backgroundOutline=1;darkOpacity=0.05;darkOpacity2=0.1;shadow=0;sketch=0;fontSize=14;strokeColor=#d79b00;strokeWidth=1;fillColor=#ffcd28;opacity=80;gradientColor=#ffa500;" vertex="1" parent="5IlsBMFir-37_L_1EuhB-95">
          <mxGeometry x="30" width="50" height="40" as="geometry" />
        </mxCell>
        <mxCell id="5IlsBMFir-37_L_1EuhB-71" value="" style="shape=cube;whiteSpace=wrap;html=1;boundedLbl=1;backgroundOutline=1;darkOpacity=0.05;darkOpacity2=0.1;shadow=0;sketch=0;fontSize=14;strokeColor=#d79b00;strokeWidth=1;fillColor=#ffcd28;opacity=80;gradientColor=#ffa500;" vertex="1" parent="5IlsBMFir-37_L_1EuhB-95">
          <mxGeometry x="40" y="10" width="50" height="40" as="geometry" />
        </mxCell>
        <mxCell id="5IlsBMFir-37_L_1EuhB-72" value="" style="shape=cube;whiteSpace=wrap;html=1;boundedLbl=1;backgroundOutline=1;darkOpacity=0.05;darkOpacity2=0.1;shadow=0;sketch=0;fontSize=14;strokeColor=#d79b00;strokeWidth=1;fillColor=#ffcd28;opacity=80;gradientColor=#ffa500;" vertex="1" parent="5IlsBMFir-37_L_1EuhB-95">
          <mxGeometry x="50" y="20" width="50" height="40" as="geometry" />
        </mxCell>
        <mxCell id="5IlsBMFir-37_L_1EuhB-73" value="" style="shape=cube;whiteSpace=wrap;html=1;boundedLbl=1;backgroundOutline=1;darkOpacity=0.05;darkOpacity2=0.1;shadow=0;sketch=0;fontSize=14;strokeColor=#d79b00;strokeWidth=1;fillColor=#ffcd28;opacity=80;gradientColor=#ffa500;" vertex="1" parent="5IlsBMFir-37_L_1EuhB-95">
          <mxGeometry x="60" y="30" width="50" height="40" as="geometry" />
        </mxCell>
        <mxCell id="5IlsBMFir-37_L_1EuhB-91" value="" style="shape=cube;whiteSpace=wrap;html=1;boundedLbl=1;backgroundOutline=1;darkOpacity=0.05;darkOpacity2=0.1;shadow=0;sketch=0;fontSize=14;strokeColor=#B20000;strokeWidth=1;fillColor=#e51400;opacity=80;fontColor=#ffffff;" vertex="1" parent="5IlsBMFir-37_L_1EuhB-95">
          <mxGeometry width="50" height="40" as="geometry" />
        </mxCell>
        <mxCell id="5IlsBMFir-37_L_1EuhB-92" value="" style="shape=cube;whiteSpace=wrap;html=1;boundedLbl=1;backgroundOutline=1;darkOpacity=0.05;darkOpacity2=0.1;shadow=0;sketch=0;fontSize=14;strokeColor=#B20000;strokeWidth=1;fillColor=#e51400;opacity=80;fontColor=#ffffff;" vertex="1" parent="5IlsBMFir-37_L_1EuhB-95">
          <mxGeometry x="10" y="10" width="50" height="40" as="geometry" />
        </mxCell>
        <mxCell id="5IlsBMFir-37_L_1EuhB-93" value="" style="shape=cube;whiteSpace=wrap;html=1;boundedLbl=1;backgroundOutline=1;darkOpacity=0.05;darkOpacity2=0.1;shadow=0;sketch=0;fontSize=14;strokeColor=#B20000;strokeWidth=1;fillColor=#e51400;opacity=80;fontColor=#ffffff;" vertex="1" parent="5IlsBMFir-37_L_1EuhB-95">
          <mxGeometry x="20" y="20" width="50" height="40" as="geometry" />
        </mxCell>
        <mxCell id="5IlsBMFir-37_L_1EuhB-94" value="" style="shape=cube;whiteSpace=wrap;html=1;boundedLbl=1;backgroundOutline=1;darkOpacity=0.05;darkOpacity2=0.1;shadow=0;sketch=0;fontSize=14;strokeColor=#B20000;strokeWidth=1;fillColor=#e51400;opacity=80;fontColor=#ffffff;" vertex="1" parent="5IlsBMFir-37_L_1EuhB-95">
          <mxGeometry x="30" y="30" width="50" height="40" as="geometry" />
        </mxCell>
        <mxCell id="5IlsBMFir-37_L_1EuhB-99" value="" style="endArrow=none;dashed=1;html=1;dashPattern=1 3;strokeWidth=2;rounded=0;fontSize=14;opacity=75;" edge="1" parent="5IlsBMFir-37_L_1EuhB-104">
          <mxGeometry width="50" height="50" relative="1" as="geometry">
            <mxPoint x="20" y="90" as="sourcePoint" />
            <mxPoint x="20" y="30" as="targetPoint" />
          </mxGeometry>
        </mxCell>
        <mxCell id="5IlsBMFir-37_L_1EuhB-100" value="Vector *" style="text;html=1;align=center;verticalAlign=middle;resizable=0;points=[];autosize=1;strokeColor=none;fillColor=none;fontSize=14;" vertex="1" parent="5IlsBMFir-37_L_1EuhB-104">
          <mxGeometry width="60" height="20" as="geometry" />
        </mxCell>
        <mxCell id="5IlsBMFir-37_L_1EuhB-102" value="" style="endArrow=none;dashed=1;html=1;dashPattern=1 3;strokeWidth=2;rounded=0;fontSize=14;opacity=75;" edge="1" parent="5IlsBMFir-37_L_1EuhB-104">
          <mxGeometry width="50" height="50" relative="1" as="geometry">
            <mxPoint x="60" y="90" as="sourcePoint" />
            <mxPoint x="60" y="50" as="targetPoint" />
          </mxGeometry>
        </mxCell>
        <mxCell id="5IlsBMFir-37_L_1EuhB-103" value="patches" style="text;html=1;align=center;verticalAlign=middle;resizable=0;points=[];autosize=1;strokeColor=none;fillColor=none;fontSize=14;" vertex="1" parent="5IlsBMFir-37_L_1EuhB-104">
          <mxGeometry x="40" y="30" width="60" height="20" as="geometry" />
        </mxCell>
        <mxCell id="5IlsBMFir-37_L_1EuhB-108" value="transformer encoder" style="text;html=1;align=center;verticalAlign=middle;resizable=0;points=[];autosize=1;strokeColor=none;fillColor=none;fontSize=14;" vertex="1" parent="1">
          <mxGeometry x="620" y="725" width="140" height="20" as="geometry" />
        </mxCell>
        <mxCell id="5IlsBMFir-37_L_1EuhB-109" value="" style="shape=flexArrow;endArrow=classic;html=1;rounded=0;fontSize=14;strokeColor=#BD7000;strokeWidth=0;opacity=75;fillColor=#f0a30a;" edge="1" parent="1">
          <mxGeometry width="50" height="50" relative="1" as="geometry">
            <mxPoint x="520" y="775" as="sourcePoint" />
            <mxPoint x="570" y="774.5" as="targetPoint" />
          </mxGeometry>
        </mxCell>
        <mxCell id="5IlsBMFir-37_L_1EuhB-111" value="" style="shape=flexArrow;endArrow=classic;html=1;rounded=0;fontSize=14;strokeColor=#BD7000;strokeWidth=0;opacity=75;fillColor=#f0a30a;" edge="1" parent="1">
          <mxGeometry width="50" height="50" relative="1" as="geometry">
            <mxPoint x="832" y="755.5" as="sourcePoint" />
            <mxPoint x="897" y="715" as="targetPoint" />
          </mxGeometry>
        </mxCell>
        <mxCell id="5IlsBMFir-37_L_1EuhB-112" value="" style="shape=flexArrow;endArrow=classic;html=1;rounded=0;fontSize=14;strokeColor=#BD7000;strokeWidth=0;opacity=75;fillColor=#f0a30a;" edge="1" parent="1">
          <mxGeometry width="50" height="50" relative="1" as="geometry">
            <mxPoint x="827" y="795" as="sourcePoint" />
            <mxPoint x="902" y="819.75" as="targetPoint" />
          </mxGeometry>
        </mxCell>
        <mxCell id="5IlsBMFir-37_L_1EuhB-113" value="classify 1" style="rounded=1;whiteSpace=wrap;html=1;shadow=0;sketch=0;fontSize=14;strokeColor=#36393d;strokeWidth=1;fillColor=#cdeb8b;opacity=80;" vertex="1" parent="1">
          <mxGeometry x="927" y="705" width="90" height="40" as="geometry" />
        </mxCell>
        <mxCell id="5IlsBMFir-37_L_1EuhB-114" value="classify 2" style="rounded=1;whiteSpace=wrap;html=1;shadow=0;sketch=0;fontSize=14;strokeColor=#36393d;strokeWidth=1;fillColor=#cdeb8b;opacity=80;" vertex="1" parent="1">
          <mxGeometry x="927" y="805" width="90" height="40" as="geometry" />
        </mxCell>
        <mxCell id="5IlsBMFir-37_L_1EuhB-115" value="" style="whiteSpace=wrap;html=1;aspect=fixed;shadow=0;sketch=0;fontSize=14;strokeColor=#36393d;strokeWidth=1;fillColor=#eeeeee;opacity=50;dashed=1;" vertex="1" parent="1">
          <mxGeometry x="590" y="692.61" width="200" height="200" as="geometry" />
        </mxCell>
      </root>
    </mxGraphModel>
  </diagram>
</mxfile>
